<?xml version="1.0" encoding="utf-8"?>
<!-- Generator: Adobe Illustrator 25.2.1, SVG Export Plug-In . SVG Version: 6.00 Build 0)  -->
<svg version="1.1" id="Layer_1" xmlns="http://www.w3.org/2000/svg" xmlns:xlink="http://www.w3.org/1999/xlink" x="0px" y="0px"
	 viewBox="0 0 441.8 79.7" style="enable-background:new 0 0 441.8 79.7;" xml:space="preserve">
<style type="text/css">
	.st0{fill:#141518;}
</style>
<polygon class="st0" points="60.9,23.2 1.7,69.3 55.9,46.2 66.6,51.4 61.6,30.6 94.6,64.3 94.6,44 112.7,53.8 96.6,33.9 108,39.3 
	104.3,23.2 138,56.1 138,50.8 150.7,59.8 102.3,11.7 78.9,28.9 "/>
<g>
	<path class="st0" d="M168.3,23.3h19.9v6.6h-11.5v7.6h10.5v6.7h-10.5v13.5h-8.3V23.3z"/>
	<path class="st0" d="M202.5,23.3H215c6.9,0,10.4,3.4,10.4,10.3c0,1.9-0.3,3.5-0.9,4.8c-0.6,1.4-1.5,2.4-2.8,3.3
		c1,0.7,1.7,1.5,2.1,2.6c0.4,1.1,0.6,2.3,0.6,3.7v9.7h-8.1v-9.2c0-0.9-0.1-1.8-0.4-2.5c-0.3-0.7-1-1.1-2-1.1h-3.2v12.7h-8.1V23.3z
		 M214.1,38.8c0.8,0,1.5-0.3,2-1c0.5-0.7,0.7-1.8,0.7-3.5c0-1.8-0.2-3-0.7-3.6c-0.5-0.7-1.2-1-2.1-1h-3.3v9H214.1z"/>
	<path class="st0" d="M247,23.3h9.1l9,34.4h-8.2l-1.6-7.6h-8l-1.7,7.6h-7.9L247,23.3z M253.7,43.8l-2.5-11.5l-2.6,11.5H253.7z"/>
	<path class="st0" d="M278.3,23.3h6.9l9.5,18.7V23.3h8v34.4h-6.9l-9.5-18v18h-8V23.3z"/>
	<path class="st0" d="M326.3,23.3v12.9l8.7-12.9h9.1l-11.1,16.2l11.5,18.2h-9.4l-8.8-14v14h-7.9V23.3H326.3z"/>
	<path class="st0" d="M357.5,23.3h8.7v27.6h11.5v6.8h-20.2V23.3z"/>
	<path class="st0" d="M391.6,23.3h8.7v34.4h-8.7V23.3z"/>
	<path class="st0" d="M415.9,23.3h6.9l9.5,18.7V23.3h8v34.4h-6.9l-9.5-18v18h-8V23.3z"/>
</g>
</svg>
